<svg viewBox="0 0 720 150" xmlns="http://www.w3.org/2000/svg">
  <g transform="translate(14,25) scale(1.0)">
    <circle cx="50" cy="50" r="48" fill="#3A2A1A"/>
    <circle cx="50" cy="50" r="48" fill="none" stroke="#C2A14D" stroke-width="1.6"/>
    <circle cx="50" cy="50" r="41.5" fill="#281B0F"/>
    <circle cx="95.00" cy="50.00" r="0.9" fill="#C2A14D"/><circle cx="94.32" cy="57.81" r="0.9" fill="#C2A14D"/><circle cx="92.29" cy="65.39" r="0.9" fill="#C2A14D"/><circle cx="88.97" cy="72.50" r="0.9" fill="#C2A14D"/><circle cx="84.47" cy="78.93" r="0.9" fill="#C2A14D"/><circle cx="78.93" cy="84.47" r="0.9" fill="#C2A14D"/><circle cx="72.50" cy="88.97" r="0.9" fill="#C2A14D"/><circle cx="65.39" cy="92.29" r="0.9" fill="#C2A14D"/><circle cx="57.81" cy="94.32" r="0.9" fill="#C2A14D"/><circle cx="50.00" cy="95.00" r="0.9" fill="#C2A14D"/><circle cx="42.19" cy="94.32" r="0.9" fill="#C2A14D"/><circle cx="34.61" cy="92.29" r="0.9" fill="#C2A14D"/><circle cx="27.50" cy="88.97" r="0.9" fill="#C2A14D"/><circle cx="21.07" cy="84.47" r="0.9" fill="#C2A14D"/><circle cx="15.53" cy="78.93" r="0.9" fill="#C2A14D"/><circle cx="11.03" cy="72.50" r="0.9" fill="#C2A14D"/><circle cx="7.71" cy="65.39" r="0.9" fill="#C2A14D"/><circle cx="5.68" cy="57.81" r="0.9" fill="#C2A14D"/><circle cx="5.00" cy="50.00" r="0.9" fill="#C2A14D"/><circle cx="5.68" cy="42.19" r="0.9" fill="#C2A14D"/><circle cx="7.71" cy="34.61" r="0.9" fill="#C2A14D"/><circle cx="11.03" cy="27.50" r="0.9" fill="#C2A14D"/><circle cx="15.53" cy="21.07" r="0.9" fill="#C2A14D"/><circle cx="21.07" cy="15.53" r="0.9" fill="#C2A14D"/><circle cx="27.50" cy="11.03" r="0.9" fill="#C2A14D"/><circle cx="34.61" cy="7.71" r="0.9" fill="#C2A14D"/><circle cx="42.19" cy="5.68" r="0.9" fill="#C2A14D"/><circle cx="50.00" cy="5.00" r="0.9" fill="#C2A14D"/><circle cx="57.81" cy="5.68" r="0.9" fill="#C2A14D"/><circle cx="65.39" cy="7.71" r="0.9" fill="#C2A14D"/><circle cx="72.50" cy="11.03" r="0.9" fill="#C2A14D"/><circle cx="78.93" cy="15.53" r="0.9" fill="#C2A14D"/><circle cx="84.47" cy="21.07" r="0.9" fill="#C2A14D"/><circle cx="88.97" cy="27.50" r="0.9" fill="#C2A14D"/><circle cx="92.29" cy="34.61" r="0.9" fill="#C2A14D"/><circle cx="94.32" cy="42.19" r="0.9" fill="#C2A14D"/>
    <circle cx="50" cy="50" r="41.5" fill="none" stroke="#C2A14D" stroke-width="0.9"/>
    <polygon points="68.50,16.36 68.93,17.53 70.10,17.96 68.93,18.39 68.50,19.56 68.07,18.39 66.90,17.96 68.07,17.53" fill="#C2A14D"/><polygon points="68.50,80.44 68.93,81.61 70.10,82.04 68.93,82.47 68.50,83.64 68.07,82.47 66.90,82.04 68.07,81.61" fill="#C2A14D"/><polygon points="31.50,80.44 31.93,81.61 33.10,82.04 31.93,82.47 31.50,83.64 31.07,82.47 29.90,82.04 31.07,81.61" fill="#C2A14D"/><polygon points="31.50,16.36 31.93,17.53 33.10,17.96 31.93,18.39 31.50,19.56 31.07,18.39 29.90,17.96 31.07,17.53" fill="#C2A14D"/><polygon points="85.71,35.90 86.00,36.71 86.81,37.00 86.00,37.30 85.71,38.10 85.41,37.30 84.61,37.00 85.41,36.71" fill="#C2A14D"/><polygon points="85.71,61.90 86.00,62.70 86.81,63.00 86.00,63.29 85.71,64.10 85.41,63.29 84.61,63.00 85.41,62.70" fill="#C2A14D"/><polygon points="14.29,61.90 14.59,62.70 15.39,63.00 14.59,63.29 14.29,64.10 14.00,63.29 13.19,63.00 14.00,62.70" fill="#C2A14D"/><polygon points="14.29,35.90 14.59,36.71 15.39,37.00 14.59,37.30 14.29,38.10 14.00,37.30 13.19,37.00 14.00,36.71" fill="#C2A14D"/>
    <path d="M50.00 50.00 L54.90 47.50 L64.85 35.15 Z" fill="#E3C77A"/><path d="M50.00 50.00 L52.50 45.10 L64.85 35.15 Z" fill="#C2A14D"/><path d="M50.00 50.00 L52.50 54.90 L64.85 64.85 Z" fill="#E3C77A"/><path d="M50.00 50.00 L54.90 52.50 L64.85 64.85 Z" fill="#C2A14D"/><path d="M50.00 50.00 L45.10 52.50 L35.15 64.85 Z" fill="#E3C77A"/><path d="M50.00 50.00 L47.50 54.90 L35.15 64.85 Z" fill="#C2A14D"/><path d="M50.00 50.00 L47.50 45.10 L35.15 35.15 Z" fill="#E3C77A"/><path d="M50.00 50.00 L45.10 47.50 L35.15 35.15 Z" fill="#C2A14D"/><path d="M50.00 50.00 L51.04 45.11 L50.00 17.00 Z" fill="#E3C77A"/><path d="M50.00 50.00 L48.96 45.11 L50.00 17.00 Z" fill="#C2A14D"/><path d="M50.00 50.00 L54.89 51.04 L83.00 50.00 Z" fill="#E3C77A"/><path d="M50.00 50.00 L54.89 48.96 L83.00 50.00 Z" fill="#C2A14D"/><path d="M50.00 50.00 L48.96 54.89 L50.00 83.00 Z" fill="#E3C77A"/><path d="M50.00 50.00 L51.04 54.89 L50.00 83.00 Z" fill="#C2A14D"/><path d="M50.00 50.00 L45.11 48.96 L17.00 50.00 Z" fill="#E3C77A"/><path d="M50.00 50.00 L45.11 51.04 L17.00 50.00 Z" fill="#C2A14D"/><circle cx="50" cy="50" r="4.2" fill="#281B0F" stroke="#E3C77A" stroke-width="1.2"/><circle cx="50" cy="50" r="1.6" fill="#E3C77A"/><polygon points="50.00,5.50 51.21,8.79 54.50,10.00 51.21,11.21 50.00,14.50 48.79,11.21 45.50,10.00 48.79,8.79" fill="#E3C77A"/>
  </g>
  <text x="140" y="74" font-family="Cinzel, Georgia, serif" font-weight="700" font-size="46" letter-spacing="2" fill="#E3C77A">THE WISE YOU</text>
  <text x="142" y="104" font-family="Cinzel, Georgia, serif" font-weight="500" font-size="15.5" letter-spacing="6" fill="#C2A14D">MEET THE WISE YOU</text>
</svg>