<svg viewBox="0 0 360 440" xmlns="http://www.w3.org/2000/svg">
  <defs>
    <clipPath id="ov"><rect x="20" y="20" width="320" height="400" rx="14"/></clipPath>
    <radialGradient id="sky" cx="50%" cy="35%" r="75%">
      <stop offset="0%" stop-color="#2A1D10"/><stop offset="100%" stop-color="#160E06"/>
    </radialGradient>
  </defs>
  <rect width="360" height="440" fill="#281B0F"/>
  <rect x="14" y="14" width="332" height="412" rx="16" fill="none" stroke="#C2A14D" stroke-width="4"/>
  <g clip-path="url(#ov)">
    <rect x="20" y="20" width="320" height="400" fill="url(#sky)"/>
    <circle cx="163.6" cy="245.3" r="1.33" fill="#E3C77A" opacity="0.58"/><circle cx="182.7" cy="257.1" r="0.67" fill="#E3C77A" opacity="0.61"/><circle cx="224.7" cy="344.2" r="0.58" fill="#E3C77A" opacity="0.48"/><circle cx="39.2" cy="351.3" r="1.12" fill="#E3C77A" opacity="0.33"/><circle cx="345.9" cy="417.1" r="1.09" fill="#E3C77A" opacity="0.67"/><circle cx="62.2" cy="14.4" r="0.98" fill="#E3C77A" opacity="0.34"/><circle cx="73.4" cy="110.6" r="0.53" fill="#E3C77A" opacity="0.58"/><circle cx="159.5" cy="365.2" r="0.97" fill="#E3C77A" opacity="0.68"/><circle cx="179.9" cy="288.9" r="0.91" fill="#E3C77A" opacity="0.47"/><circle cx="351.2" cy="430.2" r="1.26" fill="#E3C77A" opacity="0.72"/><circle cx="116.5" cy="105.4" r="0.76" fill="#E3C77A" opacity="0.34"/><circle cx="271.6" cy="177.8" r="1.26" fill="#E3C77A" opacity="0.53"/><circle cx="337.6" cy="367.3" r="0.50" fill="#E3C77A" opacity="0.43"/><circle cx="321.1" cy="207.3" r="1.38" fill="#E3C77A" opacity="0.54"/><circle cx="33.1" cy="274.9" r="1.20" fill="#E3C77A" opacity="0.46"/><circle cx="38.0" cy="149.0" r="1.37" fill="#E3C77A" opacity="0.75"/><circle cx="48.6" cy="112.5" r="0.59" fill="#E3C77A" opacity="0.34"/><circle cx="282.2" cy="83.3" r="1.00" fill="#E3C77A" opacity="0.57"/><circle cx="73.6" cy="318.3" r="0.62" fill="#E3C77A" opacity="0.69"/><circle cx="48.1" cy="186.4" r="0.69" fill="#E3C77A" opacity="0.46"/><circle cx="342.0" cy="348.6" r="0.77" fill="#E3C77A" opacity="0.83"/><circle cx="80.5" cy="175.2" r="1.27" fill="#E3C77A" opacity="0.69"/><circle cx="42.5" cy="427.5" r="0.69" fill="#E3C77A" opacity="0.45"/><circle cx="273.8" cy="147.5" r="0.77" fill="#E3C77A" opacity="0.34"/><circle cx="39.0" cy="255.1" r="0.72" fill="#E3C77A" opacity="0.66"/><circle cx="135.9" cy="200.2" r="1.36" fill="#E3C77A" opacity="0.59"/><circle cx="205.7" cy="375.4" r="0.66" fill="#E3C77A" opacity="0.39"/><circle cx="320.5" cy="354.7" r="0.72" fill="#E3C77A" opacity="0.41"/><circle cx="262.4" cy="406.7" r="0.68" fill="#E3C77A" opacity="0.87"/><circle cx="311.5" cy="263.9" r="0.88" fill="#E3C77A" opacity="0.36"/><circle cx="21.3" cy="416.2" r="0.71" fill="#E3C77A" opacity="0.72"/><circle cx="96.4" cy="357.3" r="1.04" fill="#E3C77A" opacity="0.48"/><circle cx="68.3" cy="313.4" r="0.56" fill="#E3C77A" opacity="0.44"/><circle cx="200.4" cy="369.4" r="1.05" fill="#E3C77A" opacity="0.47"/><circle cx="323.6" cy="94.5" r="0.51" fill="#E3C77A" opacity="0.46"/><circle cx="161.3" cy="33.6" r="0.66" fill="#E3C77A" opacity="0.52"/><circle cx="204.8" cy="63.8" r="0.83" fill="#E3C77A" opacity="0.83"/><circle cx="345.3" cy="286.5" r="1.12" fill="#E3C77A" opacity="0.65"/><circle cx="56.3" cy="22.9" r="0.52" fill="#E3C77A" opacity="0.85"/><circle cx="249.1" cy="416.2" r="0.52" fill="#E3C77A" opacity="0.68"/><circle cx="173.9" cy="317.7" r="0.79" fill="#E3C77A" opacity="0.90"/><circle cx="33.9" cy="239.5" r="1.16" fill="#E3C77A" opacity="0.84"/><circle cx="261.6" cy="306.4" r="1.21" fill="#E3C77A" opacity="0.85"/><circle cx="129.0" cy="298.5" r="1.31" fill="#E3C77A" opacity="0.82"/><circle cx="151.5" cy="343.2" r="1.28" fill="#E3C77A" opacity="0.64"/><circle cx="223.0" cy="170.1" r="1.02" fill="#E3C77A" opacity="0.67"/><circle cx="35.6" cy="279.1" r="1.39" fill="#E3C77A" opacity="0.83"/><circle cx="258.5" cy="172.7" r="1.16" fill="#E3C77A" opacity="0.65"/><circle cx="159.5" cy="363.5" r="0.58" fill="#E3C77A" opacity="0.75"/><circle cx="18.2" cy="262.9" r="0.93" fill="#E3C77A" opacity="0.44"/><circle cx="248.2" cy="218.8" r="1.05" fill="#E3C77A" opacity="0.85"/><circle cx="96.0" cy="12.8" r="0.77" fill="#E3C77A" opacity="0.71"/><circle cx="77.7" cy="79.9" r="1.32" fill="#E3C77A" opacity="0.70"/><circle cx="160.0" cy="386.1" r="0.79" fill="#E3C77A" opacity="0.70"/><circle cx="76.3" cy="190.7" r="1.23" fill="#E3C77A" opacity="0.85"/><circle cx="310.8" cy="171.0" r="1.02" fill="#E3C77A" opacity="0.49"/><circle cx="54.8" cy="218.5" r="1.25" fill="#E3C77A" opacity="0.81"/><circle cx="252.7" cy="410.8" r="0.75" fill="#E3C77A" opacity="0.40"/><circle cx="163.0" cy="124.7" r="0.69" fill="#E3C77A" opacity="0.55"/><circle cx="223.3" cy="217.4" r="0.78" fill="#E3C77A" opacity="0.80"/><circle cx="345.8" cy="199.9" r="0.57" fill="#E3C77A" opacity="0.32"/><circle cx="308.3" cy="25.6" r="1.14" fill="#E3C77A" opacity="0.64"/><circle cx="114.3" cy="343.6" r="0.52" fill="#E3C77A" opacity="0.38"/><circle cx="164.5" cy="18.5" r="1.25" fill="#E3C77A" opacity="0.44"/><circle cx="56.5" cy="27.9" r="1.07" fill="#E3C77A" opacity="0.57"/><circle cx="224.7" cy="285.7" r="1.23" fill="#E3C77A" opacity="0.88"/><circle cx="243.5" cy="92.5" r="0.93" fill="#E3C77A" opacity="0.41"/><circle cx="11.7" cy="208.2" r="1.14" fill="#E3C77A" opacity="0.41"/><circle cx="101.7" cy="154.6" r="1.13" fill="#E3C77A" opacity="0.61"/><circle cx="219.4" cy="328.6" r="0.85" fill="#E3C77A" opacity="0.78"/>
    <circle cx="250.0" cy="77.5" r="7.6" fill="#C2A14D" opacity="0.18"/><polygon points="250.00,73.50 251.07,76.43 254.00,77.50 251.07,78.57 250.00,81.50 248.93,78.57 246.00,77.50 248.93,76.43" fill="#E3C77A"/><circle cx="246.2" cy="170.0" r="10.0" fill="#C2A14D" opacity="0.18"/><polygon points="246.25,164.75 247.66,168.59 251.50,170.00 247.66,171.41 246.25,175.25 244.84,171.41 241.00,170.00 244.84,168.59" fill="#E3C77A"/><circle cx="283.8" cy="125.0" r="8.1" fill="#C2A14D" opacity="0.18"/><polygon points="283.75,120.75 284.89,123.86 288.00,125.00 284.89,126.14 283.75,129.25 282.61,126.14 279.50,125.00 282.61,123.86" fill="#E3C77A"/><circle cx="216.2" cy="115.0" r="6.2" fill="#C2A14D" opacity="0.18"/><polygon points="216.25,111.75 217.12,114.13 219.50,115.00 217.12,115.87 216.25,118.25 215.38,115.87 213.00,115.00 215.38,114.13" fill="#E3C77A"/><circle cx="238.8" cy="138.8" r="4.0" fill="#C2A14D" opacity="0.18"/><polygon points="238.75,136.62 239.32,138.18 240.88,138.75 239.32,139.32 238.75,140.88 238.18,139.32 236.62,138.75 238.18,138.18" fill="#E3C77A"/>
    <!-- coruja grande em primeiro plano -->
    <g transform="translate(70,150) scale(2.2)">
    <path d="M35 24 L31 11 L43 22 Z" fill="#E3C77A"/>
    <path d="M65 24 L69 11 L57 22 Z" fill="#E3C77A"/>
    <path d="M50 18 C66 18 76 32 76 50 C76 70 64 85 50 85 C36 85 24 70 24 50 C24 32 34 18 50 18 Z" fill="#E3C77A"/>
    <!-- disco facial -->
    <path d="M50 30 C61 30 68 38 68 48 C68 56 60 60 50 60 C40 60 32 56 32 48 C32 38 39 30 50 30 Z" fill="#C2A14D" opacity="0.55"/>
    <!-- olhos -->
    <circle cx="41" cy="45" r="9.5" fill="#281B0F"/>
    <circle cx="59" cy="45" r="9.5" fill="#281B0F"/>
    <circle cx="41" cy="45" r="4" fill="#E3C77A"/>
    <circle cx="59" cy="45" r="4" fill="#E3C77A"/>
    <circle cx="42.4" cy="43.4" r="1.4" fill="#FFF7E2"/>
    <circle cx="60.4" cy="43.4" r="1.4" fill="#FFF7E2"/>
    <!-- bico -->
    <path d="M50 50 L46 57 L54 57 Z" fill="#C2A14D"/>
    <!-- penas peito -->
    <path d="M40 64 q10 6 20 0 M43 71 q7 4 14 0 M46 77 q4 3 8 0" stroke="#281B0F" stroke-width="1.3" fill="none"/>
    <!-- asas -->
    <path d="M27 48 q-1 18 11 30 M73 48 q1 18 -11 30" stroke="#281B0F" stroke-width="1.5" fill="none"/>
    <!-- garras / galho -->
    <path d="M33 86 q17 6 34 0" stroke="#C2A14D" stroke-width="2.4" fill="none" stroke-linecap="round"/>
    <path d="M44 85 l-1 5 M50 86 l0 5 M56 85 l1 5" stroke="#E3C77A" stroke-width="1.8" stroke-linecap="round"/>
    </g>
  </g>
  <rect x="20" y="20" width="320" height="400" rx="14" fill="none" stroke="#E3C77A" stroke-width="1"/>
  <text x="180.0" y="410" text-anchor="middle" font-family="Georgia, serif" font-size="15" fill="#E3C77A" letter-spacing="2">CRUZEIRO DO SUL</text>
</svg>