<svg viewBox="0 0 100 100" xmlns="http://www.w3.org/2000/svg"><circle cx="50" cy="50" r="49" fill="#281B0F"/><circle cx="50" cy="50" r="49" fill="none" stroke="#C2A14D" stroke-width="2.5"/><path d="M50.00 50.00 L58.16 46.20 L71.21 28.79 Z" fill="#C2A14D"/><path d="M50.00 50.00 L53.80 41.84 L71.21 28.79 Z" fill="#A8863A"/><path d="M50.00 50.00 L53.80 58.16 L71.21 71.21 Z" fill="#C2A14D"/><path d="M50.00 50.00 L58.16 53.80 L71.21 71.21 Z" fill="#A8863A"/><path d="M50.00 50.00 L41.84 53.80 L28.79 71.21 Z" fill="#C2A14D"/><path d="M50.00 50.00 L46.20 58.16 L28.79 71.21 Z" fill="#A8863A"/><path d="M50.00 50.00 L46.20 41.84 L28.79 28.79 Z" fill="#C2A14D"/><path d="M50.00 50.00 L41.84 46.20 L28.79 28.79 Z" fill="#A8863A"/><path d="M50.00 50.00 L52.18 41.27 L50.00 6.00 Z" fill="#E3C77A"/><path d="M50.00 50.00 L47.82 41.27 L50.00 6.00 Z" fill="#C2A14D"/><path d="M50.00 50.00 L58.73 52.18 L94.00 50.00 Z" fill="#E3C77A"/><path d="M50.00 50.00 L58.73 47.82 L94.00 50.00 Z" fill="#C2A14D"/><path d="M50.00 50.00 L47.82 58.73 L50.00 94.00 Z" fill="#E3C77A"/><path d="M50.00 50.00 L52.18 58.73 L50.00 94.00 Z" fill="#C2A14D"/><path d="M50.00 50.00 L41.27 47.82 L6.00 50.00 Z" fill="#E3C77A"/><path d="M50.00 50.00 L41.27 52.18 L6.00 50.00 Z" fill="#C2A14D"/><circle cx="50" cy="50" r="6" fill="#281B0F" stroke="#E3C77A" stroke-width="2"/></svg>