<svg viewBox="0 0 701 150" xmlns="http://www.w3.org/2000/svg">
  <g transform="translate(12,15)"><g>
  <circle cx="50" cy="50" r="48" fill="none" stroke="#EDE0C4" stroke-width="1.4"/>
  <circle cx="50" cy="50" r="41.5" fill="none" stroke="#EDE0C4" stroke-width="0.8"/>
  <circle cx="95.00" cy="50.00" r="0.9" fill="#E3C77A"/><circle cx="94.32" cy="57.81" r="0.9" fill="#E3C77A"/><circle cx="92.29" cy="65.39" r="0.9" fill="#E3C77A"/><circle cx="88.97" cy="72.50" r="0.9" fill="#E3C77A"/><circle cx="84.47" cy="78.93" r="0.9" fill="#E3C77A"/><circle cx="78.93" cy="84.47" r="0.9" fill="#E3C77A"/><circle cx="72.50" cy="88.97" r="0.9" fill="#E3C77A"/><circle cx="65.39" cy="92.29" r="0.9" fill="#E3C77A"/><circle cx="57.81" cy="94.32" r="0.9" fill="#E3C77A"/><circle cx="50.00" cy="95.00" r="0.9" fill="#E3C77A"/><circle cx="42.19" cy="94.32" r="0.9" fill="#E3C77A"/><circle cx="34.61" cy="92.29" r="0.9" fill="#E3C77A"/><circle cx="27.50" cy="88.97" r="0.9" fill="#E3C77A"/><circle cx="21.07" cy="84.47" r="0.9" fill="#E3C77A"/><circle cx="15.53" cy="78.93" r="0.9" fill="#E3C77A"/><circle cx="11.03" cy="72.50" r="0.9" fill="#E3C77A"/><circle cx="7.71" cy="65.39" r="0.9" fill="#E3C77A"/><circle cx="5.68" cy="57.81" r="0.9" fill="#E3C77A"/><circle cx="5.00" cy="50.00" r="0.9" fill="#E3C77A"/><circle cx="5.68" cy="42.19" r="0.9" fill="#E3C77A"/><circle cx="7.71" cy="34.61" r="0.9" fill="#E3C77A"/><circle cx="11.03" cy="27.50" r="0.9" fill="#E3C77A"/><circle cx="15.53" cy="21.07" r="0.9" fill="#E3C77A"/><circle cx="21.07" cy="15.53" r="0.9" fill="#E3C77A"/><circle cx="27.50" cy="11.03" r="0.9" fill="#E3C77A"/><circle cx="34.61" cy="7.71" r="0.9" fill="#E3C77A"/><circle cx="42.19" cy="5.68" r="0.9" fill="#E3C77A"/><circle cx="50.00" cy="5.00" r="0.9" fill="#E3C77A"/><circle cx="57.81" cy="5.68" r="0.9" fill="#E3C77A"/><circle cx="65.39" cy="7.71" r="0.9" fill="#E3C77A"/><circle cx="72.50" cy="11.03" r="0.9" fill="#E3C77A"/><circle cx="78.93" cy="15.53" r="0.9" fill="#E3C77A"/><circle cx="84.47" cy="21.07" r="0.9" fill="#E3C77A"/><circle cx="88.97" cy="27.50" r="0.9" fill="#E3C77A"/><circle cx="92.29" cy="34.61" r="0.9" fill="#E3C77A"/><circle cx="94.32" cy="42.19" r="0.9" fill="#E3C77A"/>
  <polygon points="68.50,16.36 68.93,17.53 70.10,17.96 68.93,18.39 68.50,19.56 68.07,18.39 66.90,17.96 68.07,17.53" fill="#C2A14D"/><polygon points="68.50,80.44 68.93,81.61 70.10,82.04 68.93,82.47 68.50,83.64 68.07,82.47 66.90,82.04 68.07,81.61" fill="#C2A14D"/><polygon points="31.50,80.44 31.93,81.61 33.10,82.04 31.93,82.47 31.50,83.64 31.07,82.47 29.90,82.04 31.07,81.61" fill="#C2A14D"/><polygon points="31.50,16.36 31.93,17.53 33.10,17.96 31.93,18.39 31.50,19.56 31.07,18.39 29.90,17.96 31.07,17.53" fill="#C2A14D"/><polygon points="85.71,35.90 86.00,36.71 86.81,37.00 86.00,37.30 85.71,38.10 85.41,37.30 84.61,37.00 85.41,36.71" fill="#C2A14D"/><polygon points="85.71,61.90 86.00,62.70 86.81,63.00 86.00,63.29 85.71,64.10 85.41,63.29 84.61,63.00 85.41,62.70" fill="#C2A14D"/><polygon points="14.29,61.90 14.59,62.70 15.39,63.00 14.59,63.29 14.29,64.10 14.00,63.29 13.19,63.00 14.00,62.70" fill="#C2A14D"/><polygon points="14.29,35.90 14.59,36.71 15.39,37.00 14.59,37.30 14.29,38.10 14.00,37.30 13.19,37.00 14.00,36.71" fill="#C2A14D"/>
  <path d="M50.00 50.00 L54.90 47.50 L64.85 35.15 Z" fill="#EDE0C4"/><path d="M50.00 50.00 L52.50 45.10 L64.85 35.15 Z" fill="#E3C77A"/><path d="M50.00 50.00 L52.50 54.90 L64.85 64.85 Z" fill="#EDE0C4"/><path d="M50.00 50.00 L54.90 52.50 L64.85 64.85 Z" fill="#E3C77A"/><path d="M50.00 50.00 L45.10 52.50 L35.15 64.85 Z" fill="#EDE0C4"/><path d="M50.00 50.00 L47.50 54.90 L35.15 64.85 Z" fill="#E3C77A"/><path d="M50.00 50.00 L47.50 45.10 L35.15 35.15 Z" fill="#EDE0C4"/><path d="M50.00 50.00 L45.10 47.50 L35.15 35.15 Z" fill="#E3C77A"/><path d="M50.00 50.00 L51.04 45.11 L50.00 17.00 Z" fill="#EDE0C4"/><path d="M50.00 50.00 L48.96 45.11 L50.00 17.00 Z" fill="#E3C77A"/><path d="M50.00 50.00 L54.89 51.04 L83.00 50.00 Z" fill="#EDE0C4"/><path d="M50.00 50.00 L54.89 48.96 L83.00 50.00 Z" fill="#E3C77A"/><path d="M50.00 50.00 L48.96 54.89 L50.00 83.00 Z" fill="#EDE0C4"/><path d="M50.00 50.00 L51.04 54.89 L50.00 83.00 Z" fill="#E3C77A"/><path d="M50.00 50.00 L45.11 48.96 L17.00 50.00 Z" fill="#EDE0C4"/><path d="M50.00 50.00 L45.11 51.04 L17.00 50.00 Z" fill="#E3C77A"/><circle cx="50" cy="50" r="4.2" fill="none" stroke="#EDE0C4" stroke-width="1.2"/><circle cx="50" cy="50" r="1.6" fill="#EDE0C4"/><polygon points="50.00,5.50 51.21,8.79 54.50,10.00 51.21,11.21 50.00,14.50 48.79,11.21 45.50,10.00 48.79,8.79" fill="#EDE0C4"/>
</g></g>
  <g transform="translate(152,82)"><path d="M3.52 -13.24 L6.35 -13.24 L7.80 -6.32 Q8.48 -5.55 9.51 -4.88 Q10.54 -4.22 11.83 -3.70 Q13.12 -3.19 14.58 -2.90 Q16.05 -2.61 17.56 -2.61 Q20.08 -2.61 21.85 -3.18 Q23.63 -3.74 24.72 -4.73 Q25.81 -5.73 26.31 -7.14 Q26.81 -8.54 26.81 -10.22 Q26.81 -12.15 25.82 -13.41 Q24.84 -14.66 23.21 -15.56 Q21.59 -16.47 19.53 -17.16 Q17.47 -17.85 15.29 -18.62 Q13.12 -19.40 11.05 -20.40 Q8.99 -21.40 7.36 -22.92 Q5.73 -24.46 4.75 -26.65 Q3.77 -28.84 3.77 -32.03 Q3.77 -37.73 7.65 -40.71 Q11.54 -43.70 19.02 -43.70 Q20.59 -43.70 22.22 -43.59 Q23.85 -43.48 25.40 -43.28 Q26.95 -43.09 28.36 -42.83 Q29.78 -42.57 31.00 -42.31 L31.00 -32.03 L28.13 -32.03 L26.69 -37.96 Q25.27 -38.99 23.43 -39.67 Q21.59 -40.35 19.02 -40.35 Q16.82 -40.35 15.25 -39.91 Q13.70 -39.48 12.69 -38.70 Q11.69 -37.93 11.24 -36.84 Q10.80 -35.74 10.80 -34.38 Q10.80 -32.65 11.80 -31.48 Q12.80 -30.33 14.41 -29.48 Q16.02 -28.65 18.09 -27.97 Q20.17 -27.30 22.35 -26.50 Q24.52 -25.72 26.60 -24.70 Q28.68 -23.69 30.29 -22.15 Q31.91 -20.62 32.91 -18.43 Q33.91 -16.24 33.91 -13.12 Q33.91 -9.96 33.00 -7.41 Q32.10 -4.87 30.13 -3.07 Q28.16 -1.29 25.10 -0.32 Q22.05 0.65 17.70 0.65 Q15.60 0.65 13.54 0.45 Q11.48 0.26 9.62 -0.06 Q7.77 -0.39 6.19 -0.80 Q4.61 -1.23 3.52 -1.64 L3.52 -13.24 Z M45.44 -2.35 L50.98 -3.23 L50.98 -40.02 L45.44 -40.87 L45.44 -43.22 L82.24 -43.22 L82.24 -32.23 L79.31 -32.23 L78.28 -39.22 Q77.25 -39.35 75.77 -39.45 Q74.31 -39.54 72.79 -39.59 Q71.29 -39.64 69.93 -39.65 Q68.58 -39.67 67.83 -39.67 L61.13 -39.67 L61.13 -23.81 L72.44 -23.81 L73.44 -28.59 L76.31 -28.59 L76.31 -15.30 L73.44 -15.30 L72.44 -20.20 L61.13 -20.20 L61.13 -3.55 L69.29 -3.55 Q71.29 -3.55 73.05 -3.59 Q74.83 -3.64 76.24 -3.70 Q77.66 -3.77 78.67 -3.87 Q79.69 -3.96 80.18 -4.06 L82.01 -12.06 L84.95 -12.06 L84.33 -0.00 L45.44 -0.00 L45.44 -2.35 Z M149.81 0.65 Q144.37 0.65 140.10 -0.84 Q135.83 -2.32 132.86 -5.13 Q129.90 -7.93 128.33 -11.97 Q126.78 -16.02 126.78 -21.11 Q126.78 -26.91 128.33 -31.15 Q129.90 -35.41 132.85 -38.20 Q135.80 -40.99 140.07 -42.34 Q144.34 -43.70 149.78 -43.70 Q154.39 -43.70 158.30 -43.03 Q162.22 -42.37 165.34 -41.54 L165.54 -31.16 L162.64 -31.16 L161.74 -37.41 Q159.70 -38.81 157.16 -39.56 Q154.62 -40.31 151.85 -40.31 Q148.46 -40.31 145.78 -39.33 Q143.11 -38.35 141.25 -36.09 Q139.41 -33.84 138.44 -30.20 Q137.47 -26.55 137.47 -21.20 Q137.47 -16.50 138.44 -13.01 Q139.41 -9.54 141.21 -7.25 Q143.02 -4.96 145.64 -3.82 Q148.27 -2.67 151.59 -2.67 Q155.23 -2.67 157.95 -3.64 Q160.67 -4.61 162.22 -5.93 L163.25 -13.02 L166.18 -13.02 L165.99 -2.06 Q164.60 -1.52 162.72 -1.03 Q160.84 -0.55 158.69 -0.18 Q156.55 0.20 154.26 0.42 Q151.97 0.65 149.81 0.65 Z M190.79 -21.66 Q190.79 -17.15 191.34 -13.60 Q191.89 -10.05 193.24 -7.60 Q194.60 -5.16 196.87 -3.87 Q199.14 -2.58 202.56 -2.58 Q205.97 -2.58 208.22 -3.87 Q210.48 -5.16 211.83 -7.60 Q213.19 -10.05 213.74 -13.60 Q214.29 -17.15 214.29 -21.66 Q214.29 -26.13 213.74 -29.65 Q213.19 -33.16 211.83 -35.55 Q210.48 -37.93 208.22 -39.19 Q205.97 -40.45 202.56 -40.45 Q199.14 -40.45 196.87 -39.19 Q194.60 -37.93 193.24 -35.55 Q191.89 -33.16 191.34 -29.65 Q190.79 -26.13 190.79 -21.66 Z M180.10 -21.66 Q180.10 -27.39 181.57 -31.55 Q183.06 -35.71 185.93 -38.41 Q188.79 -41.13 192.97 -42.42 Q197.15 -43.70 202.56 -43.70 Q207.78 -43.70 211.94 -42.42 Q216.09 -41.13 218.99 -38.41 Q221.90 -35.71 223.44 -31.55 Q224.99 -27.39 224.99 -21.66 Q224.99 -15.92 223.44 -11.71 Q221.90 -7.51 218.99 -4.76 Q216.09 -2.03 211.94 -0.69 Q207.78 0.65 202.56 0.65 Q197.33 0.65 193.18 -0.69 Q189.02 -2.03 186.10 -4.76 Q183.19 -7.51 181.65 -11.71 Q180.10 -15.92 180.10 -21.66 Z M272.90 -40.02 L267.11 -40.87 L267.11 -43.22 L282.48 -43.22 L282.48 -40.87 L276.93 -40.02 L276.93 -0.00 L273.16 -0.00 L246.51 -34.74 L246.51 -3.23 L252.32 -2.35 L252.32 -0.00 L236.94 -0.00 L236.94 -2.35 L242.48 -3.23 L242.48 -40.02 L236.94 -40.87 L236.94 -43.22 L251.73 -43.22 L272.90 -15.60 L272.90 -40.02 Z M296.27 -0.00 L296.27 -2.38 L301.81 -3.23 L301.81 -39.99 L296.27 -40.87 L296.27 -43.22 L317.51 -43.22 L317.51 -40.87 L311.96 -39.99 L311.96 -24.01 L329.63 -24.01 L329.63 -39.99 L324.08 -40.87 L324.08 -43.22 L345.39 -43.22 L345.39 -40.87 L339.81 -39.99 L339.81 -3.23 L345.39 -2.38 L345.39 -0.00 L324.08 -0.00 L324.08 -2.38 L329.63 -3.23 L329.63 -20.46 L311.96 -20.46 L311.96 -3.23 L317.51 -2.38 L317.51 -0.00 L296.27 -0.00 Z M359.31 -2.35 L364.85 -3.23 L364.85 -40.02 L359.31 -40.87 L359.31 -43.22 L396.11 -43.22 L396.11 -32.23 L393.18 -32.23 L392.15 -39.22 Q391.12 -39.35 389.64 -39.45 Q388.18 -39.54 386.66 -39.59 Q385.16 -39.64 383.80 -39.65 Q382.45 -39.67 381.70 -39.67 L375.00 -39.67 L375.00 -23.81 L386.31 -23.81 L387.31 -28.59 L390.18 -28.59 L390.18 -15.30 L387.31 -15.30 L386.31 -20.20 L375.00 -20.20 L375.00 -3.55 L383.16 -3.55 Q385.16 -3.55 386.92 -3.59 Q388.70 -3.64 390.11 -3.70 Q391.53 -3.77 392.54 -3.87 Q393.56 -3.96 394.05 -4.06 L395.88 -12.06 L398.82 -12.06 L398.20 -0.00 L359.31 -0.00 L359.31 -2.35 Z M437.88 0.65 Q432.44 0.65 428.17 -0.84 Q423.90 -2.32 420.93 -5.13 Q417.97 -7.93 416.40 -11.97 Q414.85 -16.02 414.85 -21.11 Q414.85 -26.91 416.40 -31.15 Q417.97 -35.41 420.92 -38.20 Q423.87 -40.99 428.14 -42.34 Q432.41 -43.70 437.85 -43.70 Q442.46 -43.70 446.37 -43.03 Q450.29 -42.37 453.42 -41.54 L453.61 -31.16 L450.71 -31.16 L449.81 -37.41 Q447.77 -38.81 445.23 -39.56 Q442.69 -40.31 439.92 -40.31 Q436.53 -40.31 433.85 -39.33 Q431.18 -38.35 429.33 -36.09 Q427.48 -33.84 426.51 -30.20 Q425.54 -26.55 425.54 -21.20 Q425.54 -16.50 426.51 -13.01 Q427.48 -9.54 429.28 -7.25 Q431.09 -4.96 433.71 -3.82 Q436.34 -2.67 439.66 -2.67 Q443.30 -2.67 446.02 -3.64 Q448.74 -4.61 450.29 -5.93 L451.32 -13.02 L454.25 -13.02 L454.06 -2.06 Q452.67 -1.52 450.79 -1.03 Q448.91 -0.55 446.76 -0.18 Q444.62 0.20 442.33 0.42 Q440.04 0.65 437.88 0.65 Z M435.50 13.60 Q434.29 13.60 432.86 13.34 Q431.45 13.09 430.35 12.60 L430.35 9.70 Q431.45 9.99 432.67 10.15 Q433.89 10.31 434.70 10.31 Q436.35 10.31 437.01 9.51 Q437.67 8.70 437.67 7.54 Q437.67 6.13 436.67 5.36 Q435.67 4.61 433.44 4.44 L435.09 -1.84 L438.67 -1.84 L437.93 1.71 Q439.25 1.90 440.34 2.28 Q441.43 2.67 442.23 3.33 Q443.02 4.00 443.45 4.93 Q443.89 5.87 443.89 7.13 Q443.89 8.73 443.24 9.94 Q442.60 11.15 441.46 11.95 Q440.34 12.77 438.80 13.18 Q437.28 13.60 435.50 13.60 Z M478.74 -2.35 L478.74 -0.00 L465.59 -0.00 L465.59 -2.35 L468.81 -3.23 L484.19 -43.57 L493.53 -43.57 L508.83 -3.23 L512.12 -2.35 L512.12 -0.00 L492.88 -0.00 L492.88 -2.35 L497.88 -3.23 L493.76 -14.41 L477.15 -14.41 L473.19 -3.23 L478.74 -2.35 Z M485.60 -37.06 L478.48 -17.95 L492.53 -17.95 L485.60 -37.06 Z" fill="#EDE0C4"/></g>
  <line x1="154" y1="93" x2="582" y2="93" stroke="#E3C77A" stroke-width="0.8"/>
  <g transform="translate(154,111)"><path d="M11.25 -7.20 Q11.25 -8.88 10.93 -10.04 Q10.62 -11.19 10.00 -11.90 Q9.39 -12.61 8.48 -12.92 Q7.58 -13.22 6.40 -13.22 L5.61 -13.22 L5.61 -1.22 Q5.86 -1.20 6.07 -1.19 Q6.28 -1.18 6.49 -1.17 Q6.70 -1.15 6.93 -1.14 Q7.16 -1.14 7.48 -1.14 Q8.55 -1.14 9.27 -1.49 Q9.99 -1.84 10.43 -2.58 Q10.87 -3.32 11.06 -4.46 Q11.25 -5.61 11.25 -7.20 Z M7.23 -14.41 Q8.97 -14.41 10.37 -14.04 Q11.77 -13.66 12.76 -12.83 Q13.75 -11.99 14.28 -10.63 Q14.81 -9.27 14.81 -7.28 Q14.81 -5.52 14.40 -4.16 Q14.00 -2.79 13.13 -1.86 Q12.26 -0.92 10.91 -0.44 Q9.56 0.04 7.68 0.04 Q7.07 0.04 6.39 0.04 Q5.72 0.03 5.07 0.02 Q4.43 0.01 3.85 0.00 Q3.28 -0.00 2.86 -0.00 L0.39 -0.00 L0.39 -0.78 L2.23 -1.08 L2.23 -13.34 L0.39 -13.62 L0.39 -14.41 L7.23 -14.41 Z M23.44 -0.78 L25.29 -1.08 L25.29 -13.34 L23.44 -13.62 L23.44 -14.41 L35.71 -14.41 L35.71 -10.74 L34.73 -10.74 L34.39 -13.07 Q34.04 -13.12 33.55 -13.15 Q33.06 -13.18 32.56 -13.20 Q32.06 -13.21 31.60 -13.22 Q31.15 -13.22 30.90 -13.22 L28.67 -13.22 L28.67 -7.94 L32.44 -7.94 L32.77 -9.53 L33.73 -9.53 L33.73 -5.10 L32.77 -5.10 L32.44 -6.73 L28.67 -6.73 L28.67 -1.18 L31.39 -1.18 Q32.06 -1.18 32.64 -1.20 Q33.24 -1.21 33.71 -1.23 Q34.18 -1.26 34.52 -1.29 Q34.86 -1.32 35.02 -1.35 L35.63 -4.02 L36.61 -4.02 L36.40 -0.00 L23.44 -0.00 L23.44 -0.78 Z M46.05 -4.41 L46.99 -4.41 L47.48 -2.11 Q47.70 -1.85 48.05 -1.63 Q48.39 -1.41 48.82 -1.23 Q49.25 -1.06 49.74 -0.97 Q50.23 -0.87 50.73 -0.87 Q51.57 -0.87 52.16 -1.06 Q52.75 -1.25 53.12 -1.58 Q53.48 -1.91 53.65 -2.38 Q53.81 -2.85 53.81 -3.41 Q53.81 -4.05 53.48 -4.47 Q53.16 -4.89 52.61 -5.19 Q52.07 -5.49 51.39 -5.72 Q50.70 -5.95 49.97 -6.21 Q49.25 -6.47 48.56 -6.80 Q47.87 -7.13 47.33 -7.64 Q46.79 -8.15 46.46 -8.88 Q46.13 -9.61 46.13 -10.68 Q46.13 -12.58 47.43 -13.57 Q48.72 -14.57 51.21 -14.57 Q51.74 -14.57 52.28 -14.53 Q52.83 -14.49 53.34 -14.43 Q53.86 -14.36 54.33 -14.28 Q54.80 -14.19 55.21 -14.10 L55.21 -10.68 L54.25 -10.68 L53.77 -12.65 Q53.30 -13.00 52.69 -13.22 Q52.07 -13.45 51.21 -13.45 Q50.48 -13.45 49.96 -13.30 Q49.44 -13.16 49.11 -12.90 Q48.77 -12.64 48.62 -12.28 Q48.48 -11.91 48.48 -11.46 Q48.48 -10.88 48.81 -10.49 Q49.14 -10.11 49.68 -9.83 Q50.21 -9.55 50.91 -9.32 Q51.60 -9.10 52.33 -8.83 Q53.05 -8.57 53.74 -8.23 Q54.44 -7.90 54.97 -7.38 Q55.51 -6.88 55.85 -6.14 Q56.18 -5.41 56.18 -4.37 Q56.18 -3.32 55.88 -2.47 Q55.58 -1.62 54.92 -1.02 Q54.26 -0.43 53.24 -0.11 Q52.23 0.22 50.77 0.22 Q50.08 0.22 49.39 0.15 Q48.70 0.09 48.08 -0.02 Q47.46 -0.13 46.94 -0.27 Q46.41 -0.41 46.05 -0.55 L46.05 -4.41 Z M72.40 0.22 Q70.59 0.22 69.16 -0.28 Q67.74 -0.77 66.75 -1.71 Q65.76 -2.64 65.24 -3.99 Q64.72 -5.34 64.72 -7.04 Q64.72 -8.97 65.24 -10.38 Q65.76 -11.80 66.75 -12.73 Q67.73 -13.66 69.15 -14.11 Q70.58 -14.57 72.39 -14.57 Q73.93 -14.57 75.23 -14.34 Q76.54 -14.12 77.58 -13.85 L77.64 -10.39 L76.68 -10.39 L76.38 -12.47 Q75.70 -12.94 74.85 -13.19 Q74.00 -13.44 73.08 -13.44 Q71.95 -13.44 71.06 -13.11 Q70.17 -12.78 69.55 -12.03 Q68.93 -11.28 68.61 -10.06 Q68.29 -8.85 68.29 -7.07 Q68.29 -5.50 68.61 -4.34 Q68.93 -3.18 69.53 -2.42 Q70.14 -1.65 71.01 -1.27 Q71.89 -0.89 72.99 -0.89 Q74.21 -0.89 75.11 -1.21 Q76.02 -1.54 76.54 -1.98 L76.88 -4.34 L77.86 -4.34 L77.80 -0.69 Q77.33 -0.51 76.70 -0.34 Q76.08 -0.18 75.36 -0.06 Q74.65 0.07 73.88 0.14 Q73.12 0.22 72.40 0.22 Z M94.42 -1.31 Q95.30 -1.31 95.94 -1.57 Q96.58 -1.84 97.00 -2.30 Q97.41 -2.77 97.60 -3.43 Q97.80 -4.08 97.80 -4.87 L97.80 -13.34 L95.86 -13.62 L95.86 -14.41 L100.76 -14.41 L100.76 -13.62 L99.13 -13.34 L99.13 -4.95 Q99.13 -4.00 98.87 -3.07 Q98.60 -2.15 97.97 -1.42 Q97.34 -0.69 96.26 -0.24 Q95.19 0.20 93.58 0.20 Q92.07 0.20 90.95 -0.15 Q89.84 -0.52 89.09 -1.19 Q88.34 -1.87 87.97 -2.84 Q87.60 -3.81 87.60 -5.04 L87.60 -13.34 L85.97 -13.62 L85.97 -14.41 L92.83 -14.41 L92.83 -13.62 L90.99 -13.34 L90.99 -4.89 Q90.99 -4.07 91.19 -3.41 Q91.40 -2.75 91.81 -2.28 Q92.23 -1.81 92.88 -1.56 Q93.53 -1.31 94.42 -1.31 Z M118.29 -10.85 Q118.29 -11.46 118.17 -11.91 Q118.04 -12.35 117.76 -12.65 Q117.48 -12.95 117.03 -13.08 Q116.59 -13.22 115.96 -13.22 L114.46 -13.22 L114.46 -8.21 L116.04 -8.21 Q116.70 -8.21 117.13 -8.39 Q117.57 -8.57 117.82 -8.91 Q118.08 -9.25 118.19 -9.74 Q118.29 -10.23 118.29 -10.85 Z M119.37 -4.20 Q119.37 -5.63 118.66 -6.33 Q117.95 -7.03 116.32 -7.03 L114.46 -7.03 L114.46 -1.18 Q114.98 -1.16 115.45 -1.15 Q115.85 -1.13 116.26 -1.12 Q116.67 -1.12 116.90 -1.12 Q117.58 -1.12 118.05 -1.33 Q118.53 -1.55 118.81 -1.94 Q119.10 -2.34 119.24 -2.91 Q119.37 -3.48 119.37 -4.20 Z M109.22 -0.00 L109.22 -0.78 L111.08 -1.08 L111.08 -13.34 L109.22 -13.62 L109.22 -14.41 L116.22 -14.41 Q117.81 -14.41 118.89 -14.18 Q119.96 -13.95 120.61 -13.53 Q121.26 -13.12 121.54 -12.52 Q121.81 -11.91 121.81 -11.15 Q121.81 -10.43 121.57 -9.85 Q121.33 -9.27 120.92 -8.83 Q120.51 -8.40 119.97 -8.12 Q119.44 -7.83 118.85 -7.70 Q119.91 -7.59 120.68 -7.30 Q121.45 -7.02 121.95 -6.56 Q122.44 -6.11 122.68 -5.51 Q122.92 -4.92 122.92 -4.20 Q122.92 -3.27 122.59 -2.48 Q122.25 -1.70 121.53 -1.13 Q120.80 -0.57 119.67 -0.25 Q118.54 0.07 116.93 0.07 Q115.65 0.07 114.38 0.03 Q113.11 -0.00 112.04 -0.00 L109.22 -0.00 Z M136.81 -6.10 L136.81 -1.08 L138.66 -0.78 L138.66 -0.00 L131.71 -0.00 L131.71 -0.78 L133.42 -1.08 L133.42 -13.34 L131.57 -13.62 L131.57 -14.41 L138.46 -14.41 Q140.26 -14.41 141.48 -14.11 Q142.69 -13.82 143.42 -13.28 Q144.15 -12.75 144.46 -12.01 Q144.77 -11.27 144.77 -10.38 Q144.77 -9.70 144.62 -9.09 Q144.47 -8.48 144.13 -7.96 Q143.80 -7.45 143.24 -7.05 Q142.69 -6.65 141.87 -6.40 L145.72 -1.08 L147.28 -0.78 L147.28 -0.00 L142.61 -0.00 L138.60 -6.10 L136.81 -6.10 Z M141.42 -10.36 Q141.42 -11.22 141.25 -11.77 Q141.08 -12.32 140.70 -12.64 Q140.32 -12.97 139.73 -13.09 Q139.15 -13.22 138.32 -13.22 L136.81 -13.22 L136.81 -7.28 L138.37 -7.28 Q139.22 -7.28 139.80 -7.46 Q140.39 -7.63 140.75 -8.00 Q141.11 -8.37 141.26 -8.95 Q141.42 -9.53 141.42 -10.36 Z M160.14 -0.78 L160.14 -0.00 L155.76 -0.00 L155.76 -0.78 L156.83 -1.08 L161.95 -14.52 L165.07 -14.52 L170.17 -1.08 L171.27 -0.78 L171.27 -0.00 L164.85 -0.00 L164.85 -0.78 L166.52 -1.08 L165.14 -4.80 L159.61 -4.80 L158.29 -1.08 L160.14 -0.78 Z M162.43 -12.35 L160.05 -5.98 L164.74 -5.98 L162.43 -12.35 Z M193.37 -7.22 Q193.37 -9.13 193.86 -10.52 Q194.35 -11.90 195.31 -12.80 Q196.26 -13.71 197.66 -14.14 Q199.05 -14.57 200.85 -14.57 Q202.59 -14.57 203.98 -14.14 Q205.36 -13.71 206.33 -12.80 Q207.30 -11.90 207.81 -10.52 Q208.33 -9.13 208.33 -7.22 Q208.33 -5.84 208.06 -4.73 Q207.79 -3.62 207.27 -2.76 Q206.76 -1.91 206.01 -1.31 Q205.27 -0.71 204.31 -0.34 L204.85 0.31 Q205.31 0.89 205.71 1.27 Q206.11 1.65 206.44 1.88 Q206.77 2.11 207.04 2.20 Q207.32 2.29 207.56 2.29 Q208.11 2.29 208.44 2.20 L208.44 3.12 Q208.32 3.18 208.04 3.25 Q207.77 3.32 207.42 3.39 Q207.06 3.47 206.66 3.52 Q206.27 3.57 205.90 3.57 Q205.03 3.57 204.38 3.39 Q203.74 3.21 203.20 2.86 Q202.67 2.50 202.18 1.97 Q201.69 1.44 201.13 0.73 L200.72 0.22 Q199.01 0.20 197.65 -0.25 Q196.29 -0.71 195.34 -1.62 Q194.38 -2.54 193.88 -3.93 Q193.37 -5.32 193.37 -7.22 Z M196.93 -7.22 Q196.93 -5.72 197.11 -4.53 Q197.30 -3.35 197.75 -2.53 Q198.20 -1.72 198.96 -1.29 Q199.71 -0.86 200.85 -0.86 Q201.99 -0.86 202.74 -1.29 Q203.49 -1.72 203.94 -2.53 Q204.40 -3.35 204.58 -4.53 Q204.76 -5.72 204.76 -7.22 Q204.76 -8.71 204.58 -9.88 Q204.40 -11.05 203.94 -11.85 Q203.49 -12.64 202.74 -13.06 Q201.99 -13.48 200.85 -13.48 Q199.71 -13.48 198.96 -13.06 Q198.20 -12.64 197.75 -11.85 Q197.30 -11.05 197.11 -9.88 Q196.93 -8.71 196.93 -7.22 Z M225.00 -1.31 Q225.88 -1.31 226.52 -1.57 Q227.16 -1.84 227.57 -2.30 Q227.99 -2.77 228.18 -3.43 Q228.38 -4.08 228.38 -4.87 L228.38 -13.34 L226.44 -13.62 L226.44 -14.41 L231.34 -14.41 L231.34 -13.62 L229.71 -13.34 L229.71 -4.95 Q229.71 -4.00 229.44 -3.07 Q229.18 -2.15 228.55 -1.42 Q227.91 -0.69 226.84 -0.24 Q225.77 0.20 224.15 0.20 Q222.65 0.20 221.53 -0.15 Q220.41 -0.52 219.67 -1.19 Q218.92 -1.87 218.55 -2.84 Q218.18 -3.81 218.18 -5.04 L218.18 -13.34 L216.55 -13.62 L216.55 -14.41 L223.41 -14.41 L223.41 -13.62 L221.57 -13.34 L221.57 -4.89 Q221.57 -4.07 221.77 -3.41 Q221.97 -2.75 222.39 -2.28 Q222.81 -1.81 223.46 -1.56 Q224.11 -1.31 225.00 -1.31 Z M239.81 -0.78 L241.66 -1.08 L241.66 -13.34 L239.81 -13.62 L239.81 -14.41 L252.08 -14.41 L252.08 -10.74 L251.10 -10.74 L250.76 -13.07 Q250.41 -13.12 249.92 -13.15 Q249.44 -13.18 248.93 -13.20 Q248.43 -13.21 247.97 -13.22 Q247.52 -13.22 247.28 -13.22 L245.04 -13.22 L245.04 -7.94 L248.81 -7.94 L249.15 -9.53 L250.10 -9.53 L250.10 -5.10 L249.15 -5.10 L248.81 -6.73 L245.04 -6.73 L245.04 -1.18 L247.76 -1.18 Q248.43 -1.18 249.02 -1.20 Q249.61 -1.21 250.08 -1.23 Q250.55 -1.26 250.89 -1.29 Q251.23 -1.32 251.39 -1.35 L252.00 -4.02 L252.98 -4.02 L252.78 -0.00 L239.81 -0.00 L239.81 -0.78 Z M270.72 -0.00 L270.13 -0.00 L264.82 -12.17 L264.82 -1.08 L266.75 -0.78 L266.75 -0.00 L261.62 -0.00 L261.62 -0.78 L263.47 -1.08 L263.47 -13.34 L261.62 -13.62 L261.62 -14.41 L267.28 -14.41 L271.40 -4.93 L275.60 -14.41 L281.38 -14.41 L281.38 -13.62 L279.53 -13.34 L279.53 -1.08 L281.38 -0.78 L281.38 -0.00 L274.21 -0.00 L274.21 -0.78 L276.15 -1.08 L276.15 -12.17 L270.72 -0.00 Z M317.88 -14.41 L317.88 -13.62 L316.52 -13.33 L310.95 0.33 L309.53 0.33 L303.67 -13.33 L302.49 -13.62 L302.49 -14.41 L308.75 -14.41 L308.75 -13.62 L307.26 -13.33 L311.31 -3.89 L315.09 -13.33 L313.64 -13.62 L313.64 -14.41 L317.88 -14.41 Z M330.92 -7.22 Q330.92 -5.72 331.10 -4.53 Q331.28 -3.35 331.73 -2.53 Q332.19 -1.72 332.94 -1.29 Q333.70 -0.86 334.84 -0.86 Q335.98 -0.86 336.73 -1.29 Q337.48 -1.72 337.93 -2.53 Q338.38 -3.35 338.57 -4.53 Q338.75 -5.72 338.75 -7.22 Q338.75 -8.71 338.57 -9.88 Q338.38 -11.05 337.93 -11.85 Q337.48 -12.64 336.73 -13.06 Q335.98 -13.48 334.84 -13.48 Q333.70 -13.48 332.94 -13.06 Q332.19 -12.64 331.73 -11.85 Q331.28 -11.05 331.10 -9.88 Q330.92 -8.71 330.92 -7.22 Z M327.35 -7.22 Q327.35 -9.13 327.84 -10.52 Q328.34 -11.90 329.29 -12.80 Q330.25 -13.71 331.64 -14.14 Q333.03 -14.57 334.84 -14.57 Q336.58 -14.57 337.96 -14.14 Q339.35 -13.71 340.32 -12.80 Q341.28 -11.90 341.80 -10.52 Q342.32 -9.13 342.32 -7.22 Q342.32 -5.31 341.80 -3.90 Q341.28 -2.50 340.32 -1.59 Q339.35 -0.68 337.96 -0.23 Q336.58 0.22 334.84 0.22 Q333.10 0.22 331.71 -0.23 Q330.33 -0.68 329.35 -1.59 Q328.38 -2.50 327.87 -3.90 Q327.35 -5.31 327.35 -7.22 Z M358.64 0.22 Q356.82 0.22 355.40 -0.28 Q353.97 -0.77 352.98 -1.71 Q352.00 -2.64 351.47 -3.99 Q350.96 -5.34 350.96 -7.04 Q350.96 -8.97 351.47 -10.38 Q352.00 -11.80 352.98 -12.73 Q353.96 -13.66 355.39 -14.11 Q356.81 -14.57 358.62 -14.57 Q360.16 -14.57 361.46 -14.34 Q362.77 -14.12 363.81 -13.85 L363.88 -10.39 L362.91 -10.39 L362.61 -12.47 Q361.93 -12.94 361.08 -13.19 Q360.24 -13.44 359.31 -13.44 Q358.18 -13.44 357.29 -13.11 Q356.40 -12.78 355.78 -12.03 Q355.17 -11.28 354.84 -10.06 Q354.52 -8.85 354.52 -7.07 Q354.52 -5.50 354.84 -4.34 Q355.17 -3.18 355.77 -2.42 Q356.37 -1.65 357.24 -1.27 Q358.12 -0.89 359.23 -0.89 Q360.44 -0.89 361.35 -1.21 Q362.25 -1.54 362.77 -1.98 L363.11 -4.34 L364.09 -4.34 L364.03 -0.69 Q363.56 -0.51 362.94 -0.34 Q362.31 -0.18 361.59 -0.06 Q360.88 0.07 360.12 0.14 Q359.35 0.22 358.64 0.22 Z M372.03 -0.78 L373.88 -1.08 L373.88 -13.34 L372.03 -13.62 L372.03 -14.41 L384.30 -14.41 L384.30 -10.74 L383.32 -10.74 L382.98 -13.07 Q382.63 -13.12 382.14 -13.15 Q381.65 -13.18 381.15 -13.20 Q380.65 -13.21 380.19 -13.22 Q379.74 -13.22 379.50 -13.22 L377.26 -13.22 L377.26 -7.94 L381.03 -7.94 L381.37 -9.53 L382.32 -9.53 L382.32 -5.10 L381.37 -5.10 L381.03 -6.73 L377.26 -6.73 L377.26 -1.18 L379.98 -1.18 Q380.65 -1.18 381.23 -1.20 Q381.83 -1.21 382.30 -1.23 Q382.77 -1.26 383.11 -1.29 Q383.45 -1.32 383.61 -1.35 L384.22 -4.02 L385.20 -4.02 L385.00 -0.00 L372.03 -0.00 L372.03 -0.78 Z M375.50 -15.53 L375.50 -15.88 L377.85 -19.03 L380.13 -19.03 L382.47 -15.88 L382.47 -15.53 L381.65 -15.53 L378.99 -17.27 L376.32 -15.53 L375.50 -15.53 Z M406.44 -0.78 L408.29 -1.08 L408.29 -13.34 L406.44 -13.62 L406.44 -14.41 L418.71 -14.41 L418.71 -10.74 L417.73 -10.74 L417.39 -13.07 Q417.05 -13.12 416.55 -13.15 Q416.07 -13.18 415.56 -13.20 Q415.06 -13.21 414.61 -13.22 Q414.16 -13.22 413.91 -13.22 L411.67 -13.22 L411.67 -7.94 L415.44 -7.94 L415.78 -9.53 L416.73 -9.53 L416.73 -5.10 L415.78 -5.10 L415.44 -6.73 L411.67 -6.73 L411.67 -1.18 L414.39 -1.18 Q415.06 -1.18 415.65 -1.20 Q416.24 -1.21 416.71 -1.23 Q417.18 -1.26 417.52 -1.29 Q417.86 -1.32 418.02 -1.35 L418.63 -4.02 L419.61 -4.02 L419.41 -0.00 L406.44 -0.00 L406.44 -0.78 Z M411.86 -15.53 L411.86 -15.88 L413.64 -18.81 L416.71 -18.81 L416.71 -18.41 L412.78 -15.53 L411.86 -15.53 Z" fill="#E3C77A"/></g>
</svg>