<svg viewBox="0 0 100 100" xmlns="http://www.w3.org/2000/svg"><g>
    <defs><clipPath id="cf"><circle cx="50" cy="50" r="41.5"/></clipPath></defs>
    <circle cx="50" cy="50" r="48" fill="#3A2A1A"/>
    <circle cx="50" cy="50" r="48" fill="none" stroke="#C2A14D" stroke-width="1.6"/>
    <circle cx="50" cy="50" r="41.5" fill="#1E1408"/>
    <g clip-path="url(#cf)"><circle cx="28.0" cy="53.7" r="0.83" fill="#E3C77A" opacity="0.66"/><circle cx="60.6" cy="13.5" r="0.51" fill="#E3C77A" opacity="0.80"/><circle cx="29.8" cy="27.7" r="1.40" fill="#E3C77A" opacity="0.58"/><circle cx="78.3" cy="48.0" r="1.08" fill="#E3C77A" opacity="0.39"/><circle cx="61.3" cy="80.9" r="0.97" fill="#E3C77A" opacity="0.74"/><circle cx="64.4" cy="13.4" r="1.18" fill="#E3C77A" opacity="0.65"/><circle cx="33.3" cy="10.6" r="1.28" fill="#E3C77A" opacity="0.58"/><circle cx="68.4" cy="81.8" r="1.14" fill="#E3C77A" opacity="0.85"/><circle cx="41.2" cy="75.3" r="0.90" fill="#E3C77A" opacity="0.86"/><circle cx="81.8" cy="16.2" r="0.62" fill="#E3C77A" opacity="0.43"/><circle cx="89.1" cy="44.6" r="1.06" fill="#E3C77A" opacity="0.48"/><circle cx="50.6" cy="40.4" r="0.82" fill="#E3C77A" opacity="0.65"/><circle cx="57.1" cy="84.0" r="1.11" fill="#E3C77A" opacity="0.86"/><circle cx="79.9" cy="91.2" r="1.10" fill="#E3C77A" opacity="0.40"/><circle cx="80.3" cy="89.0" r="1.31" fill="#E3C77A" opacity="0.64"/><circle cx="68.0" cy="25.7" r="1.25" fill="#E3C77A" opacity="0.64"/><circle cx="31.9" cy="13.3" r="1.27" fill="#E3C77A" opacity="0.89"/><circle cx="15.4" cy="75.3" r="0.87" fill="#E3C77A" opacity="0.39"/><circle cx="32.7" cy="72.6" r="1.29" fill="#E3C77A" opacity="0.33"/><circle cx="59.6" cy="11.8" r="1.15" fill="#E3C77A" opacity="0.50"/><circle cx="82.0" cy="90.4" r="0.95" fill="#E3C77A" opacity="0.90"/><circle cx="34.0" cy="14.5" r="1.04" fill="#E3C77A" opacity="0.32"/><circle cx="24.6" cy="42.3" r="1.05" fill="#E3C77A" opacity="0.39"/><circle cx="11.6" cy="80.9" r="0.78" fill="#E3C77A" opacity="0.88"/><circle cx="83.3" cy="39.7" r="0.91" fill="#E3C77A" opacity="0.61"/><circle cx="62.1" cy="58.0" r="1.00" fill="#E3C77A" opacity="0.67"/><circle cx="87.0" cy="50.6" r="0.89" fill="#E3C77A" opacity="0.73"/><circle cx="28.0" cy="33.3" r="1.38" fill="#E3C77A" opacity="0.61"/><circle cx="54.1" cy="9.0" r="0.87" fill="#E3C77A" opacity="0.65"/><circle cx="9.7" cy="59.7" r="1.07" fill="#E3C77A" opacity="0.34"/><circle cx="60.7" cy="47.2" r="1.11" fill="#E3C77A" opacity="0.51"/><circle cx="67.4" cy="70.0" r="0.52" fill="#E3C77A" opacity="0.34"/><circle cx="64.8" cy="88.9" r="0.73" fill="#E3C77A" opacity="0.57"/><circle cx="57.8" cy="34.9" r="0.83" fill="#E3C77A" opacity="0.49"/><circle cx="74.0" cy="15.7" r="2.6" fill="#C2A14D" opacity="0.18"/><polygon points="74.00,14.38 74.36,15.36 75.34,15.72 74.36,16.08 74.00,17.06 73.64,16.08 72.66,15.72 73.64,15.36" fill="#E3C77A"/><circle cx="72.7" cy="46.8" r="3.4" fill="#C2A14D" opacity="0.18"/><polygon points="72.74,45.04 73.21,46.33 74.50,46.80 73.21,47.27 72.74,48.56 72.27,47.27 70.98,46.80 72.27,46.33" fill="#E3C77A"/><circle cx="85.3" cy="31.7" r="2.7" fill="#C2A14D" opacity="0.18"/><polygon points="85.34,30.25 85.72,31.30 86.77,31.68 85.72,32.06 85.34,33.11 84.96,32.06 83.91,31.68 84.96,31.30" fill="#E3C77A"/><circle cx="62.7" cy="28.3" r="2.1" fill="#C2A14D" opacity="0.18"/><polygon points="62.66,27.23 62.95,28.03 63.75,28.32 62.95,28.61 62.66,29.41 62.37,28.61 61.57,28.32 62.37,28.03" fill="#E3C77A"/><circle cx="70.2" cy="36.3" r="1.4" fill="#C2A14D" opacity="0.18"/><polygon points="70.22,35.59 70.41,36.11 70.93,36.30 70.41,36.49 70.22,37.01 70.03,36.49 69.51,36.30 70.03,36.11" fill="#E3C77A"/></g>
    <circle cx="95.00" cy="50.00" r="0.9" fill="#C2A14D"/><circle cx="94.32" cy="57.81" r="0.9" fill="#C2A14D"/><circle cx="92.29" cy="65.39" r="0.9" fill="#C2A14D"/><circle cx="88.97" cy="72.50" r="0.9" fill="#C2A14D"/><circle cx="84.47" cy="78.93" r="0.9" fill="#C2A14D"/><circle cx="78.93" cy="84.47" r="0.9" fill="#C2A14D"/><circle cx="72.50" cy="88.97" r="0.9" fill="#C2A14D"/><circle cx="65.39" cy="92.29" r="0.9" fill="#C2A14D"/><circle cx="57.81" cy="94.32" r="0.9" fill="#C2A14D"/><circle cx="50.00" cy="95.00" r="0.9" fill="#C2A14D"/><circle cx="42.19" cy="94.32" r="0.9" fill="#C2A14D"/><circle cx="34.61" cy="92.29" r="0.9" fill="#C2A14D"/><circle cx="27.50" cy="88.97" r="0.9" fill="#C2A14D"/><circle cx="21.07" cy="84.47" r="0.9" fill="#C2A14D"/><circle cx="15.53" cy="78.93" r="0.9" fill="#C2A14D"/><circle cx="11.03" cy="72.50" r="0.9" fill="#C2A14D"/><circle cx="7.71" cy="65.39" r="0.9" fill="#C2A14D"/><circle cx="5.68" cy="57.81" r="0.9" fill="#C2A14D"/><circle cx="5.00" cy="50.00" r="0.9" fill="#C2A14D"/><circle cx="5.68" cy="42.19" r="0.9" fill="#C2A14D"/><circle cx="7.71" cy="34.61" r="0.9" fill="#C2A14D"/><circle cx="11.03" cy="27.50" r="0.9" fill="#C2A14D"/><circle cx="15.53" cy="21.07" r="0.9" fill="#C2A14D"/><circle cx="21.07" cy="15.53" r="0.9" fill="#C2A14D"/><circle cx="27.50" cy="11.03" r="0.9" fill="#C2A14D"/><circle cx="34.61" cy="7.71" r="0.9" fill="#C2A14D"/><circle cx="42.19" cy="5.68" r="0.9" fill="#C2A14D"/><circle cx="50.00" cy="5.00" r="0.9" fill="#C2A14D"/><circle cx="57.81" cy="5.68" r="0.9" fill="#C2A14D"/><circle cx="65.39" cy="7.71" r="0.9" fill="#C2A14D"/><circle cx="72.50" cy="11.03" r="0.9" fill="#C2A14D"/><circle cx="78.93" cy="15.53" r="0.9" fill="#C2A14D"/><circle cx="84.47" cy="21.07" r="0.9" fill="#C2A14D"/><circle cx="88.97" cy="27.50" r="0.9" fill="#C2A14D"/><circle cx="92.29" cy="34.61" r="0.9" fill="#C2A14D"/><circle cx="94.32" cy="42.19" r="0.9" fill="#C2A14D"/>
    <circle cx="50" cy="50" r="41.5" fill="none" stroke="#C2A14D" stroke-width="0.9"/>
    <g transform="translate(15,16) scale(0.7)">
    <path d="M35 24 L31 11 L43 22 Z" fill="#E3C77A"/>
    <path d="M65 24 L69 11 L57 22 Z" fill="#E3C77A"/>
    <path d="M50 18 C66 18 76 32 76 50 C76 70 64 85 50 85 C36 85 24 70 24 50 C24 32 34 18 50 18 Z" fill="#E3C77A"/>
    <!-- disco facial -->
    <path d="M50 30 C61 30 68 38 68 48 C68 56 60 60 50 60 C40 60 32 56 32 48 C32 38 39 30 50 30 Z" fill="#C2A14D" opacity="0.55"/>
    <!-- olhos -->
    <circle cx="41" cy="45" r="9.5" fill="#281B0F"/>
    <circle cx="59" cy="45" r="9.5" fill="#281B0F"/>
    <circle cx="41" cy="45" r="4" fill="#E3C77A"/>
    <circle cx="59" cy="45" r="4" fill="#E3C77A"/>
    <circle cx="42.4" cy="43.4" r="1.4" fill="#FFF7E2"/>
    <circle cx="60.4" cy="43.4" r="1.4" fill="#FFF7E2"/>
    <!-- bico -->
    <path d="M50 50 L46 57 L54 57 Z" fill="#C2A14D"/>
    <!-- penas peito -->
    <path d="M40 64 q10 6 20 0 M43 71 q7 4 14 0 M46 77 q4 3 8 0" stroke="#281B0F" stroke-width="1.3" fill="none"/>
    <!-- asas -->
    <path d="M27 48 q-1 18 11 30 M73 48 q1 18 -11 30" stroke="#281B0F" stroke-width="1.5" fill="none"/>
    <!-- garras / galho -->
    <path d="M33 86 q17 6 34 0" stroke="#C2A14D" stroke-width="2.4" fill="none" stroke-linecap="round"/>
    <path d="M44 85 l-1 5 M50 86 l0 5 M56 85 l1 5" stroke="#E3C77A" stroke-width="1.8" stroke-linecap="round"/>
    </g>
  </g></svg>